# xmcd CD database file
#
# Track frame offsets:
#	150
#	13342
#	27135
#	45555
#	61705
#	85710
#	101537
#	113387
#	131050
#	148237
#	158850
#	177772
#	189760
#	204022
#
# Disc length: 2941 seconds
#
# Revision: 2
# Processed by: cddbd v1.5.2PL0 Copyright (c) Steve Scherf et al.
# Submitted via: CDex 1.70beta2
#
DISCID=a70b7b0e
DTITLE=Nanci Griffith - Blue Roses From The Moons
DYEAR=1997
DGENRE=Country
TTITLE0=Everything 's Comin' Up Roses
TTITLE1=Two For The Road
TTITLE2=Wouldn't That Be Fine
TTITLE3=Battlrfield
TTITLE4=St Teresa Of Avila
TTITLE5=Gulf Coast Highway
TTITLE6=I Fought The Law
TTITLE7=Not My Way Home
TTITLE8=Is This All There Is
TTITLE9=Maybe Tomorrow
TTITLE10=Waiting For Love
TTITLE11=I'll Move Along
TTITLE12=Morning Train
TTITLE13=She Ain't Goin' Nowhere
EXTD=YEAR: 1997
EXTT0=
EXTT1=
EXTT2=
EXTT3=
EXTT4=
EXTT5=
EXTT6=
EXTT7=
EXTT8=
EXTT9=
EXTT10=
EXTT11=
EXTT12=
EXTT13=
PLAYORDER=
